<svg id="svg" version="1.1" xmlns="http://www.w3.org/2000/svg" xmlns:xlink="http://www.w3.org/1999/xlink" width="400" height="400" viewBox="0, 0, 400,400"><g id="svgg"><path id="path0" d="M190.800 74.671 C 172.818 77.029,155.371 87.650,144.129 103.083 C 141.490 106.705,141.063 107.861,141.273 110.809 L 141.400 112.600 146.200 115.116 C 148.840 116.500,153.880 119.308,157.400 121.356 C 165.038 125.800,170.131 128.626,176.600 132.010 C 179.240 133.391,183.560 135.773,186.200 137.303 C 201.593 146.225,198.640 146.136,212.674 138.101 C 217.253 135.479,223.520 132.015,226.600 130.402 C 232.369 127.383,243.912 120.967,246.414 119.390 C 247.192 118.899,250.072 117.291,252.814 115.815 C 261.070 111.372,261.043 111.467,256.150 103.921 C 246.873 89.612,232.279 79.826,213.600 75.388 C 210.651 74.687,194.540 74.180,190.800 74.671 M137.084 124.300 C 136.752 125.125,135.955 126.458,135.314 127.262 C 132.718 130.517,131.936 146.746,133.929 156.000 C 137.072 170.590,145.131 183.647,157.331 193.919 C 193.591 224.444,248.815 208.534,264.165 163.139 C 269.200 148.251,268.445 129.883,262.524 123.212 C 261.896 122.504,261.259 126.050,260.417 134.948 C 258.829 151.715,252.441 160.062,238.200 163.979 C 232.221 165.624,227.090 165.135,219.627 162.211 C 216.682 161.056,216.679 161.057,214.185 164.200 C 210.069 169.386,201.337 177.600,199.940 177.600 C 198.611 177.600,186.364 165.534,184.683 162.569 C 183.975 161.320,182.925 161.174,180.929 162.048 C 173.425 165.335,164.155 165.537,157.600 162.557 C 144.411 156.562,140.539 149.660,139.216 129.788 C 138.725 122.416,138.291 121.298,137.084 124.300 M189.013 148.320 C 187.378 149.956,196.084 165.574,199.823 167.710 C 201.406 168.615,209.487 156.472,211.055 150.832 C 211.951 147.611,211.992 147.617,206.644 150.187 C 199.929 153.416,199.766 153.410,192.313 149.660 C 190.616 148.805,189.131 148.202,189.013 148.320 M269.023 173.834 C 268.674 174.183,268.047 175.218,267.630 176.134 C 267.212 177.050,266.225 178.942,265.435 180.338 C 263.540 183.690,263.575 183.861,266.300 184.610 C 270.716 185.825,270.400 185.371,270.400 190.501 C 270.400 195.148,268.854 208.983,267.819 213.600 C 267.498 215.030,267.125 216.830,266.990 217.600 C 266.854 218.370,266.510 219.810,266.225 220.800 C 265.939 221.790,265.299 224.130,264.801 226.000 C 258.319 250.354,240.073 278.016,222.191 290.600 C 221.566 291.040,220.142 292.130,219.027 293.021 C 215.621 295.746,206.728 301.593,203.126 303.477 C 200.370 304.918,199.399 304.773,195.126 302.284 C 181.945 294.604,172.579 287.134,163.377 276.962 C 159.022 272.149,153.544 265.091,151.609 261.800 C 151.092 260.920,149.908 259.030,148.979 257.600 C 138.578 241.593,130.642 214.528,129.720 191.919 L 129.480 186.038 130.440 185.632 C 130.968 185.410,132.126 185.045,133.012 184.822 C 136.497 183.945,136.511 183.832,133.774 178.514 L 131.348 173.800 128.574 173.944 C 127.048 174.023,125.740 174.248,125.667 174.444 C 125.593 174.640,125.188 174.800,124.767 174.800 C 124.345 174.800,124.000 174.980,124.000 175.200 C 124.000 175.420,123.275 175.600,122.389 175.600 C 121.140 175.600,120.466 175.885,119.386 176.868 L 117.992 178.135 118.073 187.268 C 118.117 192.290,118.299 196.400,118.477 196.400 C 118.654 196.400,118.800 198.164,118.800 200.320 C 118.800 202.819,118.973 204.413,119.276 204.716 C 119.538 204.978,119.739 206.094,119.723 207.196 C 119.706 208.298,119.852 209.200,120.046 209.200 C 120.241 209.200,120.400 210.175,120.400 211.367 C 120.400 212.656,120.588 213.596,120.865 213.688 C 121.135 213.778,121.317 214.627,121.301 215.720 C 121.285 216.753,121.436 217.699,121.636 217.822 C 121.836 217.946,122.000 218.742,122.000 219.590 C 122.000 220.439,122.217 221.206,122.481 221.294 C 122.751 221.384,122.944 222.101,122.921 222.927 C 122.898 223.737,123.041 224.400,123.240 224.400 C 123.438 224.400,123.600 225.030,123.600 225.800 C 123.600 226.570,123.780 227.200,124.000 227.200 C 124.220 227.200,124.400 227.920,124.400 228.800 C 124.400 229.680,124.580 230.400,124.800 230.400 C 125.020 230.400,125.200 230.814,125.200 231.320 C 125.200 231.826,125.408 232.448,125.661 232.701 C 125.915 232.955,126.107 233.711,126.088 234.381 C 126.069 235.052,126.221 235.600,126.427 235.600 C 126.632 235.600,126.800 235.949,126.800 236.376 C 126.800 236.803,126.980 237.264,127.200 237.400 C 127.420 237.536,127.600 238.177,127.600 238.824 C 127.600 239.471,127.780 240.000,128.000 240.000 C 128.220 240.000,128.400 240.349,128.400 240.776 C 128.400 241.203,128.580 241.664,128.800 241.800 C 129.020 241.936,129.200 242.487,129.200 243.024 C 129.200 243.561,129.380 244.000,129.600 244.000 C 129.820 244.000,130.000 244.349,130.000 244.776 C 130.000 245.203,130.180 245.664,130.400 245.800 C 130.620 245.936,130.800 246.487,130.800 247.024 C 130.800 247.561,130.935 248.001,131.100 248.003 C 131.459 248.007,132.400 249.944,132.400 250.680 C 132.400 250.966,132.580 251.200,132.800 251.200 C 133.020 251.200,133.200 251.560,133.200 252.000 C 133.200 252.440,133.380 252.800,133.600 252.800 C 133.820 252.800,134.000 253.160,134.000 253.600 C 134.000 254.040,134.180 254.400,134.400 254.400 C 134.620 254.400,134.804 254.715,134.809 255.100 C 134.814 255.485,135.170 256.250,135.600 256.800 C 136.030 257.350,136.386 258.115,136.391 258.500 C 136.396 258.885,136.558 259.200,136.751 259.200 C 136.945 259.200,137.342 259.785,137.635 260.500 C 137.927 261.215,138.408 262.047,138.703 262.348 C 138.998 262.650,139.342 263.412,139.468 264.042 C 139.594 264.672,139.855 265.089,140.049 264.970 C 140.242 264.850,140.400 265.033,140.400 265.376 C 140.400 265.719,140.580 266.000,140.800 266.000 C 141.020 266.000,141.200 266.270,141.200 266.600 C 141.200 266.930,141.380 267.200,141.600 267.200 C 141.820 267.200,142.000 267.470,142.000 267.800 C 142.000 268.130,142.320 268.720,142.712 269.112 C 143.103 269.503,144.048 270.718,144.812 271.812 C 145.575 272.905,146.335 273.860,146.500 273.933 C 146.665 274.007,146.800 274.232,146.800 274.433 C 146.800 274.635,147.080 275.115,147.421 275.500 C 147.763 275.885,148.888 277.280,149.920 278.600 C 150.953 279.920,152.113 281.291,152.499 281.647 C 152.885 282.003,153.200 282.385,153.200 282.497 C 153.200 282.608,154.282 283.847,155.603 285.250 C 159.349 289.224,159.658 289.600,159.183 289.600 C 158.939 289.600,159.273 290.050,159.927 290.600 C 160.581 291.150,161.308 291.600,161.543 291.600 C 161.779 291.600,163.282 292.860,164.884 294.400 C 166.487 295.940,167.841 297.200,167.894 297.200 C 168.115 297.200,169.892 298.711,171.541 300.300 C 172.511 301.235,173.550 302.000,173.849 302.000 C 174.148 302.000,174.618 302.360,174.893 302.800 C 175.168 303.240,175.557 303.600,175.758 303.600 C 175.960 303.600,176.769 304.095,177.556 304.700 C 178.343 305.305,179.271 305.980,179.618 306.200 C 179.965 306.420,180.913 307.023,181.725 307.540 C 182.536 308.056,183.200 308.641,183.200 308.840 C 183.200 309.038,183.520 309.200,183.912 309.200 C 184.303 309.200,184.883 309.560,185.200 310.000 C 185.517 310.440,186.063 310.800,186.413 310.800 C 186.763 310.800,187.436 311.160,187.908 311.600 C 188.380 312.040,189.010 312.400,189.308 312.400 C 189.606 312.400,190.236 312.760,190.708 313.200 C 191.180 313.640,191.771 314.000,192.022 314.000 C 192.272 314.000,192.954 314.332,193.538 314.737 C 194.122 315.143,195.185 315.727,195.900 316.035 C 196.615 316.343,197.200 316.731,197.200 316.898 C 197.200 317.064,197.549 317.200,197.976 317.200 C 198.403 317.200,198.864 317.380,199.000 317.600 C 199.136 317.820,199.777 318.000,200.424 318.000 C 201.071 318.000,201.600 317.820,201.600 317.600 C 201.600 317.380,202.050 317.200,202.600 317.200 C 203.150 317.200,203.600 317.020,203.600 316.800 C 203.600 316.580,203.870 316.400,204.200 316.400 C 204.530 316.400,204.800 316.220,204.800 316.000 C 204.800 315.780,204.993 315.600,205.229 315.600 C 205.464 315.600,205.927 315.330,206.257 315.001 C 206.586 314.671,207.338 314.282,207.928 314.136 C 208.518 313.990,209.235 313.540,209.523 313.135 C 209.810 312.731,210.442 312.400,210.926 312.400 C 211.411 312.400,212.032 312.040,212.307 311.600 C 212.582 311.160,213.122 310.800,213.507 310.800 C 213.892 310.800,214.432 310.440,214.707 310.000 C 214.982 309.560,215.565 309.200,216.003 309.200 C 216.442 309.200,216.800 309.050,216.800 308.868 C 216.800 308.685,217.290 308.280,217.888 307.968 C 218.486 307.655,219.251 307.163,219.588 306.874 C 221.714 305.048,223.908 303.607,224.567 303.604 C 224.988 303.602,225.215 303.482,225.070 303.337 C 224.644 302.911,225.628 302.000,226.516 302.000 C 226.965 302.000,227.219 301.886,227.079 301.746 C 226.842 301.508,227.993 300.471,230.573 298.600 C 231.180 298.160,232.671 296.774,233.888 295.520 C 235.105 294.266,236.832 292.736,237.727 292.120 C 238.622 291.504,240.062 290.235,240.928 289.300 C 241.794 288.365,242.749 287.600,243.051 287.600 C 243.357 287.600,243.600 287.194,243.600 286.684 C 243.600 285.831,246.367 282.800,247.146 282.800 C 247.321 282.800,247.715 282.305,248.021 281.700 C 248.328 281.095,249.123 279.963,249.789 279.184 C 250.455 278.405,251.450 277.161,252.000 276.420 C 252.550 275.680,253.225 274.845,253.500 274.565 C 253.775 274.286,254.000 273.904,254.000 273.717 C 254.000 273.530,254.360 273.117,254.800 272.800 C 255.240 272.483,255.600 271.993,255.600 271.712 C 255.600 271.430,255.780 271.200,256.000 271.200 C 256.220 271.200,256.400 270.840,256.400 270.400 C 256.400 269.960,256.580 269.600,256.800 269.600 C 257.020 269.600,257.200 269.364,257.200 269.075 C 257.200 268.787,257.560 268.164,258.000 267.692 C 258.440 267.220,258.800 266.680,258.800 266.492 C 258.800 266.304,259.116 265.802,259.503 265.375 C 259.889 264.949,260.426 264.105,260.694 263.500 C 260.963 262.895,261.367 262.400,261.591 262.400 C 261.816 262.400,262.000 262.055,262.000 261.633 C 262.000 261.212,262.135 260.807,262.300 260.733 C 262.465 260.660,263.033 259.745,263.563 258.700 C 264.092 257.655,264.677 256.800,264.863 256.800 C 265.048 256.800,265.200 256.350,265.200 255.800 C 265.200 255.250,265.380 254.800,265.600 254.800 C 265.820 254.800,266.000 254.384,266.000 253.875 C 266.000 253.367,266.360 252.564,266.800 252.092 C 267.240 251.620,267.600 250.967,267.600 250.640 C 267.600 250.314,267.780 249.936,268.000 249.800 C 268.220 249.664,268.400 249.203,268.400 248.776 C 268.400 248.349,268.580 248.000,268.800 248.000 C 269.020 248.000,269.200 247.651,269.200 247.224 C 269.200 246.797,269.380 246.336,269.600 246.200 C 269.820 246.064,270.000 245.603,270.000 245.176 C 270.000 244.749,270.180 244.400,270.400 244.400 C 270.620 244.400,270.800 244.008,270.800 243.528 C 270.800 242.395,271.669 240.000,272.080 240.000 C 272.256 240.000,272.400 239.471,272.400 238.824 C 272.400 238.177,272.580 237.536,272.800 237.400 C 273.020 237.264,273.200 236.803,273.200 236.376 C 273.200 235.949,273.380 235.600,273.600 235.600 C 273.820 235.600,274.000 235.060,274.000 234.400 C 274.000 233.740,274.180 233.200,274.400 233.200 C 274.620 233.200,274.800 232.660,274.800 232.000 C 274.800 231.340,274.980 230.800,275.200 230.800 C 275.420 230.800,275.600 230.091,275.600 229.224 C 275.600 228.357,275.780 227.536,276.000 227.400 C 276.220 227.264,276.400 226.533,276.400 225.776 C 276.400 225.019,276.580 224.400,276.800 224.400 C 277.020 224.400,277.200 223.770,277.200 223.000 C 277.200 222.230,277.380 221.600,277.600 221.600 C 277.820 221.600,278.000 220.891,278.000 220.024 C 278.000 219.157,278.180 218.336,278.400 218.200 C 278.620 218.064,278.800 217.063,278.800 215.976 C 278.800 214.889,278.980 214.000,279.200 214.000 C 279.420 214.000,279.600 213.496,279.600 212.880 C 279.600 212.264,279.825 211.518,280.100 211.221 C 280.500 210.790,280.500 210.739,280.100 210.965 C 279.488 211.310,279.390 209.377,280.000 209.000 C 280.220 208.864,280.400 207.773,280.400 206.576 C 280.400 205.379,280.580 204.400,280.800 204.400 C 281.037 204.400,281.200 202.941,281.200 200.824 C 281.200 198.857,281.380 197.136,281.600 197.000 C 281.823 196.862,282.000 194.996,282.000 192.776 C 282.000 190.295,282.156 188.800,282.415 188.800 C 282.920 188.800,282.854 182.880,282.345 182.566 C 282.155 182.449,282.000 181.313,282.000 180.043 C 282.000 177.134,280.628 175.600,278.027 175.600 C 277.158 175.600,276.336 175.420,276.200 175.200 C 276.064 174.980,275.603 174.800,275.176 174.800 C 274.749 174.800,274.400 174.620,274.400 174.400 C 274.400 174.180,273.680 174.000,272.800 174.000 C 271.920 174.000,271.200 173.820,271.200 173.600 C 271.200 172.973,269.725 173.132,269.023 173.834 " stroke="none" fill="#f85a0a" fill-rule="evenodd"></path><path id="path1" d="M136.000 184.871 C 135.450 185.079,134.157 185.431,133.126 185.652 C 130.173 186.287,130.215 186.093,130.966 195.651 C 132.805 219.038,140.691 244.133,150.759 258.637 C 151.661 259.937,152.399 261.134,152.399 261.297 C 152.400 261.552,154.203 264.015,160.641 272.554 C 162.686 275.268,174.442 286.852,177.331 289.000 C 178.810 290.100,181.227 291.947,182.703 293.103 C 187.265 296.678,198.720 303.600,200.075 303.600 C 201.017 303.600,207.611 299.822,213.000 296.195 C 229.022 285.412,243.185 270.285,251.479 255.096 C 252.469 253.283,253.993 250.487,254.866 248.881 C 259.317 240.699,264.440 225.589,266.421 214.800 C 266.886 212.270,267.518 208.940,267.825 207.400 C 268.132 205.860,268.694 200.785,269.074 196.122 C 269.864 186.417,269.837 186.300,266.664 185.791 C 265.749 185.644,264.514 185.289,263.919 185.002 C 262.855 184.488,262.798 184.531,260.331 187.740 C 249.507 201.814,231.363 212.358,210.287 216.821 C 200.676 218.856,185.066 216.937,174.600 212.435 C 158.282 205.416,148.246 198.377,140.608 188.595 C 137.447 184.548,137.258 184.395,136.000 184.871 " stroke="none" fill="#0c327d" fill-rule="evenodd"></path><path id="path2" d="M188.400 67.993 C 188.070 68.210,187.136 68.391,186.324 68.394 C 185.512 68.397,184.736 68.580,184.600 68.800 C 184.464 69.020,183.564 69.200,182.600 69.200 C 181.636 69.200,180.736 69.380,180.600 69.600 C 180.464 69.820,179.924 70.000,179.400 70.000 C 178.876 70.000,178.336 70.180,178.200 70.400 C 178.064 70.620,177.429 70.800,176.789 70.800 C 176.148 70.800,174.983 71.160,174.200 71.600 C 173.417 72.040,172.432 72.400,172.011 72.400 C 171.591 72.400,171.136 72.580,171.000 72.800 C 170.864 73.020,170.403 73.200,169.976 73.200 C 169.549 73.200,169.200 73.380,169.200 73.600 C 169.200 73.820,168.966 74.000,168.680 74.000 C 167.944 74.000,166.007 74.941,166.003 75.300 C 166.001 75.465,165.685 75.604,165.300 75.609 C 164.915 75.614,164.150 75.970,163.600 76.400 C 163.050 76.830,162.458 77.186,162.285 77.191 C 161.698 77.208,154.800 82.018,154.800 82.410 C 154.800 82.625,154.536 82.800,154.214 82.800 C 153.892 82.800,153.435 83.160,153.200 83.600 C 152.965 84.040,152.575 84.400,152.334 84.400 C 151.792 84.400,141.200 95.052,141.200 95.598 C 141.200 95.815,140.702 96.490,140.092 97.097 C 139.483 97.703,138.733 98.695,138.425 99.300 C 138.117 99.905,137.715 100.400,137.532 100.400 C 137.350 100.400,137.200 100.636,137.200 100.925 C 137.200 101.213,136.885 101.798,136.499 102.225 C 136.114 102.651,135.357 103.900,134.817 105.000 C 134.277 106.100,133.513 107.478,133.118 108.062 C 132.723 108.646,132.396 109.366,132.391 109.662 C 132.386 109.958,132.030 110.650,131.600 111.200 C 131.170 111.750,130.814 112.510,130.809 112.888 C 130.804 113.266,130.440 114.217,130.000 115.000 C 129.560 115.783,129.200 116.781,129.200 117.218 C 129.200 117.984,129.057 118.371,128.062 120.295 C 127.808 120.787,127.600 121.721,127.600 122.371 C 127.600 123.021,127.420 123.664,127.200 123.800 C 126.980 123.936,126.800 124.476,126.800 125.000 C 126.800 125.524,126.620 126.064,126.400 126.200 C 126.180 126.336,126.000 127.571,126.000 128.944 C 126.000 130.317,125.835 131.611,125.632 131.820 C 124.470 133.021,124.468 152.986,125.630 154.180 C 125.834 154.389,126.000 155.593,126.000 156.856 C 126.000 158.119,126.180 159.264,126.400 159.400 C 126.620 159.536,126.800 160.177,126.800 160.824 C 126.800 161.471,126.980 162.000,127.200 162.000 C 127.420 162.000,127.600 162.799,127.600 163.776 C 127.600 164.753,127.780 165.664,128.000 165.800 C 128.220 165.936,128.400 166.397,128.400 166.824 C 128.400 167.251,128.580 167.600,128.800 167.600 C 129.020 167.600,129.200 168.119,129.200 168.754 C 129.200 170.190,130.053 171.881,131.170 172.664 C 131.638 172.991,132.633 174.478,133.384 175.967 C 134.134 177.457,135.299 179.612,135.974 180.755 C 136.648 181.899,137.200 183.181,137.200 183.604 C 137.200 184.663,142.813 191.546,146.717 195.273 C 153.767 202.005,161.690 206.882,174.600 212.435 C 197.667 222.358,224.456 217.659,248.595 199.454 C 254.027 195.358,262.800 185.751,262.800 183.898 C 262.800 183.562,263.593 181.872,264.562 180.143 C 265.531 178.414,266.747 176.100,267.264 175.000 C 267.781 173.900,268.608 172.822,269.102 172.605 C 269.596 172.388,270.000 171.893,270.000 171.505 C 270.000 171.117,270.180 170.800,270.400 170.800 C 270.620 170.800,270.800 170.348,270.800 169.795 C 270.800 169.242,270.980 168.432,271.200 167.995 C 271.420 167.558,271.780 166.842,272.000 166.405 C 272.220 165.968,272.400 164.978,272.400 164.205 C 272.400 163.432,272.580 162.800,272.800 162.800 C 273.020 162.800,273.200 162.271,273.200 161.624 C 273.200 160.977,273.380 160.336,273.600 160.200 C 273.820 160.064,274.000 158.894,274.000 157.600 C 274.000 156.306,274.156 155.151,274.347 155.033 C 275.571 154.276,275.583 130.800,274.359 130.800 C 274.162 130.800,274.000 129.821,274.000 128.624 C 274.000 127.427,273.820 126.336,273.600 126.200 C 273.380 126.064,273.200 125.423,273.200 124.776 C 273.200 124.129,273.020 123.600,272.800 123.600 C 272.580 123.600,272.400 122.891,272.400 122.024 C 272.400 121.157,272.220 120.336,272.000 120.200 C 271.780 120.064,271.600 119.513,271.600 118.976 C 271.600 118.439,271.420 118.000,271.200 118.000 C 270.980 118.000,270.800 117.586,270.800 117.080 C 270.800 116.026,269.947 114.008,269.500 114.003 C 269.335 114.001,269.200 113.460,269.200 112.800 C 269.200 112.140,269.065 111.599,268.900 111.597 C 268.549 111.593,267.600 109.663,267.600 108.954 C 267.600 108.686,267.464 108.407,267.298 108.333 C 267.132 108.260,266.385 106.985,265.638 105.500 C 264.891 104.015,264.127 102.800,263.940 102.800 C 263.753 102.800,263.600 102.564,263.600 102.275 C 263.600 101.987,263.240 101.364,262.800 100.892 C 262.360 100.420,262.000 99.880,262.000 99.692 C 262.000 99.504,261.667 98.994,261.261 98.557 C 260.854 98.121,260.449 97.561,260.361 97.314 C 259.747 95.599,248.682 84.400,247.601 84.400 C 247.396 84.400,247.035 84.040,246.800 83.600 C 246.565 83.160,246.148 82.800,245.874 82.800 C 245.601 82.800,245.117 82.440,244.800 82.000 C 244.483 81.560,243.969 81.200,243.659 81.200 C 243.348 81.200,242.802 80.885,242.446 80.500 C 241.709 79.704,239.742 78.459,238.700 78.129 C 238.315 78.007,238.000 77.748,238.000 77.553 C 238.000 77.359,237.640 77.200,237.200 77.200 C 236.760 77.200,236.399 77.065,236.397 76.900 C 236.393 76.541,234.456 75.600,233.720 75.600 C 233.434 75.600,233.199 75.465,233.197 75.300 C 233.193 74.941,231.256 74.000,230.520 74.000 C 230.234 74.000,230.000 73.820,230.000 73.600 C 230.000 73.380,229.640 73.200,229.200 73.200 C 228.760 73.200,228.400 73.020,228.400 72.800 C 228.400 72.580,227.860 72.400,227.200 72.400 C 226.540 72.400,226.000 72.220,226.000 72.000 C 226.000 71.780,225.651 71.600,225.224 71.600 C 224.797 71.600,224.336 71.420,224.200 71.200 C 224.064 70.980,223.333 70.800,222.576 70.800 C 221.819 70.800,221.200 70.620,221.200 70.400 C 221.200 70.180,220.671 70.000,220.024 70.000 C 219.377 70.000,218.736 69.820,218.600 69.600 C 218.464 69.380,217.499 69.200,216.456 69.200 C 215.413 69.200,214.389 69.038,214.180 68.841 C 213.188 67.903,189.710 67.131,188.400 67.993 M206.000 73.578 C 224.379 74.860,244.705 85.941,254.514 100.026 C 260.237 108.245,260.926 109.555,260.335 111.106 C 259.864 112.345,256.135 115.596,255.182 115.599 C 254.973 115.600,247.790 119.609,239.129 124.560 C 236.858 125.858,233.470 127.728,231.600 128.716 C 222.146 133.709,212.534 138.945,212.000 139.392 C 210.183 140.914,202.230 144.916,200.702 145.078 C 198.655 145.294,195.075 143.638,187.000 138.738 C 185.680 137.937,183.610 136.751,182.400 136.103 C 181.190 135.455,177.230 133.338,173.600 131.399 C 169.970 129.460,162.050 125.054,156.000 121.609 C 149.950 118.164,144.699 115.233,144.330 115.097 C 143.962 114.960,142.927 114.385,142.030 113.819 L 140.400 112.790 140.400 110.221 C 140.400 106.875,140.685 106.210,144.032 101.758 C 158.934 81.931,181.118 71.843,206.000 73.578 M139.193 122.300 C 139.429 123.125,139.883 127.164,140.201 131.275 C 141.543 148.625,145.067 155.390,155.388 160.432 C 164.937 165.095,169.909 165.232,181.140 161.141 L 183.680 160.216 184.740 161.437 C 189.358 166.756,190.264 167.820,190.735 168.482 C 191.763 169.928,199.350 176.400,200.017 176.400 C 201.460 176.400,208.567 169.717,213.400 163.814 C 216.565 159.949,216.372 160.002,220.914 161.733 C 229.942 165.173,235.200 165.011,243.823 161.027 C 254.502 156.094,258.173 149.565,259.806 132.600 C 260.828 121.993,261.585 119.650,263.100 122.409 C 263.485 123.111,264.455 124.701,265.256 125.942 C 269.011 131.763,269.351 148.438,265.954 160.200 C 260.706 178.374,246.440 195.818,231.000 202.942 C 230.340 203.246,228.810 203.958,227.600 204.523 C 209.063 213.186,189.268 212.843,170.610 203.537 C 143.526 190.028,128.029 161.468,132.551 133.400 C 132.905 131.200,133.196 129.192,133.198 128.938 C 133.199 128.684,133.785 127.770,134.500 126.907 C 135.215 126.044,136.243 124.317,136.784 123.069 C 137.932 120.424,138.594 120.213,139.193 122.300 M161.622 130.415 C 164.593 132.433,164.606 132.303,161.000 136.587 C 157.615 140.608,157.703 140.410,158.852 141.438 C 160.790 143.172,168.000 151.578,168.000 152.104 C 168.000 152.747,166.031 153.400,162.858 153.810 L 160.717 154.087 154.917 148.143 C 147.147 140.180,147.500 140.828,149.650 138.477 C 150.613 137.425,151.850 136.030,152.400 135.378 C 158.684 127.922,158.275 128.142,161.622 130.415 M246.996 134.154 C 249.593 137.099,251.883 139.805,252.085 140.167 C 252.379 140.692,251.446 141.856,247.480 145.913 C 244.745 148.711,241.908 151.694,241.176 152.541 C 239.713 154.235,238.757 154.311,233.900 153.116 C 231.198 152.452,231.616 151.740,239.682 143.281 C 241.601 141.267,242.352 140.212,242.098 139.881 C 241.897 139.616,240.525 137.889,239.052 136.042 C 235.950 132.156,235.966 132.511,238.800 130.442 C 241.840 128.222,241.717 128.166,246.996 134.154 M212.206 149.835 C 210.627 156.130,202.565 168.800,200.138 168.800 C 197.932 168.800,189.656 156.288,188.170 150.707 C 186.931 146.053,187.077 146.010,193.356 149.161 C 199.091 152.040,200.255 152.307,202.514 151.263 C 204.634 150.283,209.267 148.011,210.934 147.134 C 212.725 146.192,212.982 146.739,212.206 149.835 M170.800 300.700 C 170.800 300.869,171.160 301.232,171.600 301.507 C 172.040 301.782,172.400 301.869,172.400 301.700 C 172.400 301.531,172.040 301.168,171.600 300.893 C 171.160 300.618,170.800 300.531,170.800 300.700 " stroke="none" fill="#0d0b0b" fill-rule="evenodd"></path><path id="path3" d="M193.200 73.629 C 175.051 74.963,155.963 85.883,144.032 101.758 C 140.685 106.210,140.400 106.875,140.400 110.221 L 140.400 112.790 142.030 113.819 C 142.927 114.385,143.962 114.960,144.330 115.097 C 144.699 115.233,149.950 118.164,156.000 121.609 C 162.050 125.054,169.970 129.460,173.600 131.399 C 177.230 133.338,181.190 135.455,182.400 136.103 C 183.610 136.751,185.680 137.937,187.000 138.738 C 195.075 143.638,198.655 145.294,200.702 145.078 C 202.230 144.916,210.183 140.914,212.000 139.392 C 212.534 138.945,222.146 133.709,231.600 128.716 C 233.470 127.728,236.858 125.858,239.129 124.560 C 247.790 119.609,254.973 115.600,255.182 115.599 C 256.135 115.596,259.864 112.345,260.335 111.106 C 260.926 109.555,260.237 108.245,254.514 100.026 C 252.845 97.630,246.927 91.487,243.800 88.905 C 236.958 83.256,228.384 78.673,220.200 76.291 C 210.533 73.477,204.018 72.834,193.200 73.629 M213.600 75.388 C 232.279 79.826,246.873 89.612,256.150 103.921 C 261.043 111.467,261.070 111.372,252.814 115.815 C 250.072 117.291,247.192 118.899,246.414 119.390 C 243.912 120.967,232.369 127.383,226.600 130.402 C 223.520 132.015,217.253 135.479,212.674 138.101 C 198.640 146.136,201.593 146.225,186.200 137.303 C 183.560 135.773,179.240 133.391,176.600 132.010 C 170.131 128.626,165.038 125.800,157.400 121.356 C 153.880 119.308,148.840 116.500,146.200 115.116 L 141.400 112.600 141.273 110.809 C 141.063 107.861,141.490 106.705,144.129 103.083 C 155.371 87.650,172.818 77.029,190.800 74.671 C 194.540 74.180,210.651 74.687,213.600 75.388 M136.784 123.069 C 136.243 124.317,135.215 126.044,134.500 126.907 C 133.785 127.770,133.199 128.684,133.198 128.938 C 133.196 129.192,132.905 131.200,132.551 133.400 C 124.276 184.760,180.255 226.648,227.600 204.523 C 228.810 203.958,230.340 203.246,231.000 202.942 C 246.440 195.818,260.706 178.374,265.954 160.200 C 269.351 148.438,269.011 131.763,265.256 125.942 C 264.455 124.701,263.485 123.111,263.100 122.409 C 261.585 119.650,260.828 121.993,259.806 132.600 C 258.173 149.565,254.502 156.094,243.823 161.027 C 235.200 165.011,229.942 165.173,220.914 161.733 C 216.372 160.002,216.565 159.949,213.400 163.814 C 208.567 169.717,201.460 176.400,200.017 176.400 C 199.350 176.400,191.763 169.928,190.735 168.482 C 190.264 167.820,189.358 166.756,184.740 161.437 L 183.680 160.216 181.140 161.141 C 169.909 165.232,164.937 165.095,155.388 160.432 C 145.067 155.390,141.543 148.625,140.201 131.275 C 139.358 120.377,138.669 118.724,136.784 123.069 M138.578 123.488 C 138.724 123.867,139.011 126.702,139.216 129.788 C 140.539 149.660,144.411 156.562,157.600 162.557 C 164.155 165.537,173.425 165.335,180.929 162.048 C 182.925 161.174,183.975 161.320,184.683 162.569 C 186.364 165.534,198.611 177.600,199.940 177.600 C 201.337 177.600,210.069 169.386,214.185 164.200 C 216.679 161.057,216.682 161.056,219.627 162.211 C 227.090 165.135,232.221 165.624,238.200 163.979 C 252.441 160.062,258.829 151.715,260.417 134.948 C 261.259 126.050,261.896 122.504,262.524 123.212 C 268.445 129.883,269.200 148.251,264.165 163.139 C 252.159 198.644,212.557 218.647,178.945 206.184 C 158.137 198.469,143.122 183.486,135.996 163.331 C 132.002 152.032,131.621 131.892,135.314 127.262 C 135.955 126.458,136.752 125.125,137.084 124.300 C 137.743 122.661,138.172 122.428,138.578 123.488 M210.934 147.134 C 209.267 148.011,204.634 150.283,202.514 151.263 C 200.255 152.307,199.091 152.040,193.356 149.161 C 187.077 146.010,186.931 146.053,188.170 150.707 C 189.656 156.288,197.932 168.800,200.138 168.800 C 202.565 168.800,210.627 156.130,212.206 149.835 C 212.982 146.739,212.725 146.192,210.934 147.134 M197.597 152.037 C 200.344 153.068,200.881 152.958,206.644 150.187 C 211.992 147.617,211.951 147.611,211.055 150.832 C 209.487 156.472,201.406 168.615,199.823 167.710 C 196.788 165.976,188.801 152.684,188.800 149.367 C 188.800 148.010,189.081 148.033,192.313 149.660 C 194.011 150.514,196.389 151.584,197.597 152.037 M129.814 172.778 C 129.670 173.010,129.034 173.200,128.400 173.200 C 127.766 173.200,127.125 173.397,126.976 173.639 C 126.788 173.943,127.415 174.035,129.024 173.939 L 131.344 173.800 133.772 178.514 C 136.511 183.832,136.498 183.945,133.012 184.822 C 132.126 185.045,130.968 185.410,130.440 185.632 L 129.480 186.038 129.720 191.919 C 130.642 214.528,138.578 241.593,148.979 257.600 C 149.908 259.030,151.092 260.920,151.609 261.800 C 158.455 273.441,174.447 289.328,188.000 297.950 C 194.451 302.053,198.856 304.455,199.992 304.487 C 201.992 304.544,212.641 298.130,219.027 293.021 C 220.142 292.130,221.566 291.040,222.191 290.600 C 231.207 284.256,243.757 269.960,251.513 257.200 C 256.404 249.153,262.362 235.163,264.801 226.000 C 265.299 224.130,265.939 221.790,266.225 220.800 C 266.510 219.810,266.854 218.370,266.990 217.600 C 267.125 216.830,267.498 215.030,267.819 213.600 C 268.854 208.983,270.400 195.148,270.400 190.501 C 270.400 185.371,270.716 185.825,266.300 184.610 C 263.598 183.867,263.551 183.672,265.322 180.538 C 266.049 179.252,267.147 177.171,267.762 175.914 C 268.377 174.657,269.222 173.520,269.640 173.387 C 270.619 173.077,270.625 172.400,269.649 172.400 C 268.662 172.400,268.474 172.662,265.878 177.652 C 264.661 179.991,263.428 182.287,263.136 182.754 C 262.310 184.076,263.135 184.917,265.927 185.600 C 270.005 186.599,269.884 186.194,269.065 196.098 C 268.342 204.850,267.940 207.529,265.959 216.800 C 263.358 228.979,259.297 240.734,254.892 248.833 C 254.005 250.465,252.469 253.283,251.479 255.096 C 243.185 270.285,229.022 285.412,213.000 296.195 C 207.611 299.822,201.017 303.600,200.075 303.600 C 198.720 303.600,187.265 296.678,182.703 293.103 C 181.227 291.947,178.810 290.100,177.331 289.000 C 174.442 286.852,162.686 275.268,160.641 272.554 C 154.203 264.015,152.400 261.552,152.399 261.297 C 152.399 261.134,151.661 259.937,150.759 258.637 C 140.691 244.133,132.805 219.038,130.966 195.651 C 130.215 186.087,130.171 186.287,133.141 185.650 C 137.969 184.615,138.013 184.461,135.037 178.982 C 131.515 172.496,130.634 171.450,129.814 172.778 M271.200 173.600 C 271.200 173.820,271.661 174.000,272.224 174.000 C 272.804 174.000,273.140 173.827,273.000 173.600 C 272.864 173.380,272.403 173.200,271.976 173.200 C 271.549 173.200,271.200 173.380,271.200 173.600 M124.400 174.400 C 124.400 174.620,124.670 174.800,125.000 174.800 C 125.330 174.800,125.600 174.620,125.600 174.400 C 125.600 174.180,125.330 174.000,125.000 174.000 C 124.670 174.000,124.400 174.180,124.400 174.400 M274.400 174.400 C 274.400 174.620,274.749 174.800,275.176 174.800 C 275.603 174.800,276.064 174.980,276.200 175.200 C 276.336 175.420,276.897 175.600,277.447 175.600 C 278.012 175.600,278.340 175.426,278.200 175.200 C 278.064 174.980,277.524 174.800,277.000 174.800 C 276.476 174.800,275.936 174.620,275.800 174.400 C 275.664 174.180,275.293 174.000,274.976 174.000 C 274.659 174.000,274.400 174.180,274.400 174.400 M122.000 175.200 C 122.000 175.420,122.450 175.600,123.000 175.600 C 123.550 175.600,124.000 175.420,124.000 175.200 C 124.000 174.980,123.550 174.800,123.000 174.800 C 122.450 174.800,122.000 174.980,122.000 175.200 M118.293 176.451 L 117.186 177.277 117.244 186.038 C 117.276 190.857,117.459 194.800,117.651 194.800 C 118.108 194.800,118.155 193.568,118.018 185.177 L 117.902 178.153 119.151 177.102 C 121.117 175.448,120.384 174.891,118.293 176.451 M280.000 175.842 C 280.000 175.976,280.450 176.439,281.000 176.871 C 281.864 177.551,282.000 177.978,282.000 180.005 C 282.000 183.441,282.680 183.297,282.760 179.845 C 282.823 177.120,282.756 176.863,281.828 176.255 C 280.810 175.588,280.000 175.405,280.000 175.842 M282.028 192.500 C 282.061 196.791,282.643 196.158,282.763 191.700 C 282.813 189.887,282.684 188.800,282.421 188.800 C 282.155 188.800,282.010 190.159,282.028 192.500 M118.000 198.376 C 118.000 199.463,118.180 200.464,118.400 200.600 C 118.648 200.753,118.800 200.004,118.800 198.624 C 118.800 197.401,118.620 196.400,118.400 196.400 C 118.180 196.400,118.000 197.289,118.000 198.376 M281.467 197.067 C 281.042 197.491,281.158 200.400,281.600 200.400 C 281.820 200.400,282.000 199.590,282.000 198.600 C 282.000 196.769,281.939 196.594,281.467 197.067 M118.800 206.496 C 118.800 207.737,118.980 208.864,119.200 209.000 C 119.420 209.136,119.600 209.777,119.600 210.424 C 119.600 211.071,119.780 211.600,120.000 211.600 C 120.220 211.600,120.400 211.060,120.400 210.400 C 120.400 209.740,120.241 209.200,120.046 209.200 C 119.852 209.200,119.706 208.298,119.723 207.196 C 119.739 206.094,119.538 204.978,119.276 204.716 C 118.908 204.348,118.800 204.751,118.800 206.496 M280.400 206.424 C 280.400 207.671,280.553 208.352,280.800 208.200 C 281.020 208.064,281.200 207.153,281.200 206.176 C 281.200 205.199,281.020 204.400,280.800 204.400 C 280.580 204.400,280.400 205.311,280.400 206.424 M279.900 209.029 C 279.735 209.196,279.600 209.789,279.600 210.347 C 279.600 211.075,279.722 211.238,280.034 210.926 C 280.272 210.688,280.407 210.094,280.334 209.608 C 280.260 209.122,280.065 208.861,279.900 209.029 M120.400 214.976 C 120.400 216.398,120.963 217.194,121.317 216.272 C 121.595 215.548,121.184 213.600,120.753 213.600 C 120.559 213.600,120.400 214.219,120.400 214.976 M278.800 215.400 C 278.800 216.170,278.980 216.800,279.200 216.800 C 279.420 216.800,279.600 216.170,279.600 215.400 C 279.600 214.630,279.420 214.000,279.200 214.000 C 278.980 214.000,278.800 214.630,278.800 215.400 M278.292 218.242 C 278.131 218.402,278.000 218.809,278.000 219.147 C 278.000 219.597,278.118 219.642,278.445 219.315 C 278.690 219.070,278.821 218.663,278.737 218.410 C 278.652 218.157,278.452 218.081,278.292 218.242 M122.000 222.176 C 122.000 223.188,122.588 223.866,122.953 223.276 C 123.245 222.804,122.781 221.200,122.353 221.200 C 122.159 221.200,122.000 221.639,122.000 222.176 M277.200 222.824 C 277.200 223.537,277.367 223.944,277.600 223.800 C 277.820 223.664,278.000 223.113,278.000 222.576 C 278.000 222.039,277.820 221.600,277.600 221.600 C 277.380 221.600,277.200 222.151,277.200 222.824 M122.806 224.900 C 122.820 226.042,123.588 226.626,123.594 225.500 C 123.597 224.895,123.420 224.400,123.200 224.400 C 122.980 224.400,122.803 224.625,122.806 224.900 M276.400 225.400 C 276.400 225.950,276.580 226.400,276.800 226.400 C 277.020 226.400,277.200 225.950,277.200 225.400 C 277.200 224.850,277.020 224.400,276.800 224.400 C 276.580 224.400,276.400 224.850,276.400 225.400 M123.600 228.176 C 123.600 228.713,123.780 229.264,124.000 229.400 C 124.233 229.544,124.400 229.137,124.400 228.424 C 124.400 227.751,124.220 227.200,124.000 227.200 C 123.780 227.200,123.600 227.639,123.600 228.176 M275.867 227.467 C 275.469 227.864,275.544 230.000,275.956 230.000 C 276.152 230.000,276.386 229.370,276.476 228.600 C 276.633 227.257,276.438 226.895,275.867 227.467 M124.591 231.300 C 124.747 231.795,124.969 232.697,125.084 233.305 C 125.305 234.479,125.809 235.032,126.152 234.478 C 126.266 234.293,126.098 233.640,125.780 233.026 C 125.461 232.411,125.200 231.569,125.200 231.154 C 125.200 230.739,124.999 230.400,124.753 230.400 C 124.473 230.400,124.412 230.734,124.591 231.300 M274.800 231.624 C 274.800 232.077,274.980 232.336,275.200 232.200 C 275.420 232.064,275.600 231.693,275.600 231.376 C 275.600 231.059,275.420 230.800,275.200 230.800 C 274.980 230.800,274.800 231.171,274.800 231.624 M274.000 234.224 C 274.000 234.804,274.173 235.140,274.400 235.000 C 274.620 234.864,274.800 234.403,274.800 233.976 C 274.800 233.549,274.620 233.200,274.400 233.200 C 274.180 233.200,274.000 233.661,274.000 234.224 M126.000 236.176 C 126.000 236.493,126.180 236.864,126.400 237.000 C 126.620 237.136,126.800 237.676,126.800 238.200 C 126.800 238.724,126.980 239.264,127.200 239.400 C 127.426 239.540,127.600 239.212,127.600 238.647 C 127.600 238.097,127.420 237.536,127.200 237.400 C 126.980 237.264,126.800 236.803,126.800 236.376 C 126.800 235.949,126.620 235.600,126.400 235.600 C 126.180 235.600,126.000 235.859,126.000 236.176 M273.200 236.376 C 273.200 236.803,273.020 237.264,272.800 237.400 C 272.580 237.536,272.400 238.097,272.400 238.647 C 272.400 239.212,272.574 239.540,272.800 239.400 C 273.020 239.264,273.200 238.713,273.200 238.176 C 273.200 237.639,273.380 237.200,273.600 237.200 C 273.820 237.200,274.000 236.840,274.000 236.400 C 274.000 235.960,273.820 235.600,273.600 235.600 C 273.380 235.600,273.200 235.949,273.200 236.376 M127.600 240.576 C 127.600 240.893,127.780 241.264,128.000 241.400 C 128.220 241.536,128.400 242.087,128.400 242.624 C 128.400 243.161,128.580 243.600,128.800 243.600 C 129.020 243.600,129.200 243.251,129.200 242.824 C 129.200 242.397,129.020 241.936,128.800 241.800 C 128.580 241.664,128.400 241.203,128.400 240.776 C 128.400 240.349,128.220 240.000,128.000 240.000 C 127.780 240.000,127.600 240.259,127.600 240.576 M271.280 241.328 C 270.695 242.947,270.672 243.600,271.200 243.600 C 271.420 243.600,271.600 243.251,271.600 242.824 C 271.600 242.397,271.780 241.936,272.000 241.800 C 272.474 241.507,272.542 240.000,272.080 240.000 C 271.905 240.000,271.545 240.598,271.280 241.328 M129.209 244.700 C 129.221 245.668,130.779 247.660,130.791 246.724 C 130.796 246.352,130.620 245.936,130.400 245.800 C 130.180 245.664,130.000 245.203,130.000 244.776 C 130.000 244.349,129.820 244.000,129.600 244.000 C 129.380 244.000,129.204 244.315,129.209 244.700 M270.000 245.176 C 270.000 245.603,269.820 246.064,269.600 246.200 C 269.136 246.487,269.056 247.601,269.500 247.597 C 269.859 247.593,270.800 245.656,270.800 244.920 C 270.800 244.634,270.620 244.400,270.400 244.400 C 270.180 244.400,270.000 244.749,270.000 245.176 M130.800 248.220 C 130.800 248.738,132.078 250.855,132.273 250.660 C 132.550 250.384,131.501 248.000,131.102 248.000 C 130.936 248.000,130.800 248.099,130.800 248.220 M268.400 248.720 C 268.400 249.116,268.200 249.640,267.955 249.885 C 267.710 250.130,267.588 250.564,267.683 250.850 C 267.782 251.145,268.147 250.789,268.528 250.024 C 269.300 248.476,269.364 248.000,268.800 248.000 C 268.580 248.000,268.400 248.324,268.400 248.720 M132.400 251.520 C 132.400 252.100,133.394 253.994,133.700 253.997 C 133.865 253.999,134.000 253.730,134.000 253.400 C 134.000 253.070,133.820 252.800,133.600 252.800 C 133.380 252.800,133.200 252.440,133.200 252.000 C 133.200 251.560,133.020 251.200,132.800 251.200 C 132.580 251.200,132.400 251.344,132.400 251.520 M266.496 252.395 C 265.629 253.784,265.879 254.777,266.800 253.600 C 267.599 252.579,267.842 251.600,267.296 251.600 C 267.129 251.600,266.769 251.958,266.496 252.395 M134.000 254.720 C 134.000 255.300,134.994 257.194,135.300 257.197 C 135.465 257.199,135.600 257.560,135.600 258.000 C 135.600 258.440,135.780 258.800,136.000 258.800 C 136.634 258.800,136.451 257.888,135.600 256.800 C 135.170 256.250,134.814 255.485,134.809 255.100 C 134.804 254.715,134.620 254.400,134.400 254.400 C 134.180 254.400,134.000 254.544,134.000 254.720 M263.664 258.457 C 263.178 259.368,262.876 260.210,262.994 260.327 C 263.314 260.647,264.373 259.106,264.387 258.300 C 264.394 257.915,264.580 257.600,264.800 257.600 C 265.020 257.600,265.200 257.420,265.200 257.200 C 265.200 256.317,264.501 256.890,263.664 258.457 M136.400 259.576 C 136.400 259.783,136.580 260.064,136.800 260.200 C 137.020 260.336,137.200 260.714,137.200 261.040 C 137.200 261.367,137.560 262.020,138.000 262.492 C 138.440 262.964,138.800 263.587,138.800 263.875 C 138.800 264.164,138.980 264.400,139.200 264.400 C 139.420 264.400,139.600 264.318,139.600 264.219 C 139.600 263.785,138.648 262.000,138.416 262.000 C 138.276 262.000,137.933 261.370,137.654 260.600 C 137.191 259.320,136.400 258.674,136.400 259.576 M260.694 263.500 C 260.426 264.105,259.889 264.949,259.503 265.375 C 259.116 265.802,258.800 266.304,258.800 266.492 C 258.800 266.680,258.440 267.220,258.000 267.692 C 257.560 268.164,257.200 268.787,257.200 269.075 C 257.200 269.364,257.020 269.600,256.800 269.600 C 256.580 269.600,256.400 269.960,256.400 270.400 C 256.400 270.840,256.220 271.200,256.000 271.200 C 255.780 271.200,255.600 271.404,255.600 271.653 C 255.600 271.902,255.211 272.443,254.736 272.856 C 254.261 273.268,253.982 273.715,254.117 273.850 C 254.548 274.281,258.000 269.817,258.000 268.828 C 258.000 268.593,258.180 268.400,258.400 268.400 C 258.620 268.400,258.800 268.164,258.800 267.875 C 258.800 267.587,259.115 267.002,259.500 266.575 C 259.885 266.149,260.455 265.305,260.768 264.700 C 261.080 264.095,261.485 263.600,261.668 263.600 C 261.850 263.600,262.000 263.330,262.000 263.000 C 262.000 262.019,261.220 262.317,260.694 263.500 M139.848 265.123 C 139.515 265.661,140.681 267.052,141.107 266.626 C 141.256 266.478,141.184 266.231,140.948 266.078 C 140.713 265.925,140.436 265.539,140.333 265.220 C 140.194 264.788,140.070 264.763,139.848 265.123 M141.200 267.629 C 141.200 267.864,141.505 268.359,141.878 268.729 C 142.512 269.357,142.538 269.354,142.278 268.667 C 142.125 268.264,142.000 267.769,142.000 267.567 C 142.000 267.365,141.820 267.200,141.600 267.200 C 141.380 267.200,141.200 267.393,141.200 267.629 M142.800 270.112 C 142.800 270.393,143.160 270.883,143.600 271.200 C 144.040 271.517,144.400 272.082,144.400 272.455 C 144.400 272.828,144.542 273.193,144.715 273.267 C 144.888 273.340,145.653 274.204,146.415 275.186 C 147.177 276.168,148.115 277.327,148.500 277.762 C 148.885 278.196,149.200 278.694,149.200 278.868 C 149.200 279.422,152.783 282.950,153.062 282.672 C 153.208 282.525,152.984 282.089,152.563 281.703 C 152.142 281.316,150.953 279.920,149.920 278.600 C 148.888 277.280,147.763 275.885,147.421 275.500 C 147.080 275.115,146.800 274.620,146.800 274.400 C 146.800 274.180,146.665 273.993,146.500 273.984 C 146.335 273.975,145.570 272.986,144.800 271.787 C 143.417 269.632,142.800 269.116,142.800 270.112 M253.193 274.700 C 253.185 275.031,251.730 276.909,249.644 279.280 C 248.898 280.128,248.411 280.945,248.562 281.096 C 248.848 281.382,252.400 277.684,252.400 277.100 C 252.400 276.917,252.760 276.380,253.200 275.908 C 253.640 275.436,254.000 274.903,254.000 274.725 C 254.000 274.316,253.203 274.292,253.193 274.700 M245.214 284.284 C 243.813 285.571,243.132 286.800,243.818 286.800 C 244.164 286.800,245.809 285.063,246.585 283.879 C 247.554 282.400,247.125 282.526,245.214 284.284 M153.200 283.564 C 153.200 284.062,158.740 289.600,159.237 289.600 C 159.457 289.600,159.223 289.160,158.718 288.623 C 158.213 288.085,156.907 286.645,155.816 285.423 C 153.911 283.288,153.200 282.783,153.200 283.564 M240.928 289.300 C 240.062 290.235,238.622 291.504,237.727 292.120 C 236.832 292.736,235.105 294.266,233.888 295.520 C 232.671 296.774,231.180 298.160,230.573 298.600 C 228.023 300.450,226.840 301.507,227.068 301.734 C 227.358 302.025,229.413 300.630,230.800 299.200 C 231.350 298.633,232.384 297.760,233.097 297.260 C 234.835 296.040,243.399 287.600,242.897 287.600 C 242.680 287.600,241.794 288.365,240.928 289.300 M161.200 291.828 C 161.200 292.178,166.505 297.200,166.875 297.200 C 167.676 297.200,167.010 296.297,164.542 294.035 C 162.118 291.814,161.200 291.208,161.200 291.828 M167.600 297.413 C 167.600 297.764,170.346 300.400,170.711 300.400 C 170.897 300.400,171.443 300.767,171.925 301.216 C 172.406 301.664,172.800 301.865,172.800 301.662 C 172.800 301.459,172.108 300.687,171.263 299.947 C 168.285 297.338,167.600 296.864,167.600 297.413 M173.200 302.229 C 173.200 302.621,174.322 303.600,174.771 303.600 C 175.339 303.600,175.315 303.075,174.720 302.480 C 174.228 301.988,173.200 301.818,173.200 302.229 M225.230 302.564 C 224.560 303.372,225.442 303.815,226.203 303.054 C 226.531 302.726,226.800 302.354,226.800 302.229 C 226.800 301.775,225.687 302.013,225.230 302.564 M175.600 303.819 C 175.600 304.177,177.765 305.974,178.212 305.987 C 178.438 305.994,178.883 306.360,179.200 306.800 C 179.517 307.240,180.057 307.600,180.400 307.600 C 180.743 307.600,181.283 307.960,181.600 308.400 C 181.917 308.840,182.407 309.200,182.688 309.200 C 183.628 309.200,183.215 308.489,181.725 307.540 C 180.913 307.023,179.965 306.420,179.618 306.200 C 179.271 305.980,178.343 305.305,177.556 304.700 C 176.159 303.627,175.600 303.375,175.600 303.819 M222.000 304.978 C 221.010 305.732,219.925 306.585,219.588 306.874 C 219.251 307.163,218.486 307.655,217.888 307.968 C 216.793 308.539,216.437 309.200,217.223 309.200 C 217.676 309.200,220.911 306.801,221.133 306.300 C 221.207 306.135,221.512 306.000,221.813 306.000 C 222.369 306.000,224.400 304.316,224.400 303.854 C 224.400 303.339,223.757 303.640,222.000 304.978 M184.093 310.000 C 184.547 310.726,185.600 311.126,185.600 310.571 C 185.600 310.177,184.478 309.200,184.025 309.200 C 183.738 309.200,183.761 309.469,184.093 310.000 M214.792 309.810 C 214.514 310.145,214.384 310.517,214.504 310.637 C 214.770 310.903,216.400 309.929,216.400 309.504 C 216.400 308.971,215.317 309.177,214.792 309.810 M186.003 311.100 C 186.007 311.488,188.079 312.455,188.342 312.192 C 188.606 311.927,187.139 310.829,186.500 310.813 C 186.225 310.806,186.001 310.935,186.003 311.100 M212.392 311.410 C 212.114 311.745,211.984 312.117,212.104 312.237 C 212.370 312.503,214.000 311.529,214.000 311.104 C 214.000 310.571,212.917 310.777,212.392 311.410 M189.290 312.871 C 189.514 313.542,190.707 314.226,191.052 313.882 C 191.211 313.722,190.995 313.329,190.571 313.009 C 189.630 312.297,189.079 312.238,189.290 312.871 M209.592 313.010 C 209.314 313.345,209.197 313.731,209.333 313.867 C 209.624 314.157,210.800 313.263,210.800 312.751 C 210.800 312.200,210.148 312.340,209.592 313.010 M191.600 314.229 C 191.600 314.710,192.773 315.600,193.408 315.600 C 193.774 315.600,194.531 315.960,195.091 316.400 C 195.650 316.840,196.354 317.200,196.654 317.200 C 196.954 317.200,197.200 317.380,197.200 317.600 C 197.200 317.820,197.549 318.000,197.976 318.000 C 198.403 318.000,198.864 318.180,199.000 318.400 C 199.352 318.969,201.272 318.872,202.100 318.243 C 202.959 317.591,202.996 317.200,202.200 317.200 C 201.870 317.200,201.600 317.380,201.600 317.600 C 201.600 317.820,201.071 318.000,200.424 318.000 C 199.777 318.000,199.136 317.820,199.000 317.600 C 198.864 317.380,198.403 317.200,197.976 317.200 C 197.549 317.200,197.200 317.064,197.200 316.898 C 197.200 316.731,196.615 316.343,195.900 316.035 C 195.185 315.727,194.122 315.143,193.538 314.737 C 192.495 314.013,191.600 313.778,191.600 314.229 M206.900 314.488 C 206.405 314.727,206.000 315.075,206.000 315.261 C 206.000 315.448,205.730 315.600,205.400 315.600 C 205.070 315.600,204.800 315.780,204.800 316.000 C 204.800 316.220,205.070 316.400,205.400 316.400 C 205.730 316.400,206.000 316.220,206.000 316.000 C 206.000 315.780,206.225 315.596,206.500 315.591 C 206.775 315.586,207.450 315.230,208.000 314.800 C 209.101 313.939,208.432 313.749,206.900 314.488 " stroke="none" fill="#752f18" fill-rule="evenodd"></path><path id="path4" d="M155.749 131.496 C 154.457 132.978,152.950 134.725,152.400 135.378 C 151.850 136.030,150.613 137.425,149.650 138.477 C 147.500 140.828,147.147 140.180,154.917 148.143 L 160.717 154.087 162.858 153.810 C 166.031 153.400,168.000 152.747,168.000 152.104 C 168.000 151.578,160.790 143.172,158.852 141.438 C 157.703 140.410,157.615 140.608,161.000 136.587 C 164.606 132.303,164.593 132.433,161.622 130.415 C 158.542 128.323,158.508 128.329,155.749 131.496 M238.800 130.442 C 235.966 132.511,235.950 132.156,239.052 136.042 C 240.525 137.889,241.897 139.616,242.098 139.881 C 242.352 140.212,241.601 141.267,239.682 143.281 C 231.616 151.740,231.198 152.452,233.900 153.116 C 238.757 154.311,239.713 154.235,241.176 152.541 C 241.908 151.694,244.745 148.711,247.480 145.913 C 251.446 141.856,252.379 140.692,252.085 140.167 C 251.176 138.543,242.210 128.802,241.638 128.818 C 241.287 128.828,240.010 129.558,238.800 130.442 " stroke="none" fill="#238840" fill-rule="evenodd"></path></g></svg>